<svg width="142" height="29" viewBox="0 0 142 29" fill="none" xmlns="http://www.w3.org/2000/svg">
<path d="M14.728 4V15.232H11.992V10.608H7.736V15.232H5V4H7.736V8.4H11.992V4H14.728Z" fill="black"/>
<path d="M25.7751 13.248H21.5831L20.9111 15.232H18.0471L22.1111 4H25.2791L29.3431 15.232H26.4471L25.7751 13.248ZM25.0711 11.136L23.6791 7.024L22.3031 11.136H25.0711Z" fill="black"/>
<path d="M38.388 15.232L36.052 10.992H35.396V15.232H32.66V4H37.252C38.1373 4 38.8893 4.15467 39.508 4.464C40.1373 4.77333 40.6067 5.2 40.916 5.744C41.2253 6.27733 41.38 6.87467 41.38 7.536C41.38 8.28267 41.1667 8.94933 40.74 9.536C40.324 10.1227 39.7053 10.5387 38.884 10.784L41.476 15.232H38.388ZM35.396 9.056H37.092C37.5933 9.056 37.9667 8.93333 38.212 8.688C38.468 8.44267 38.596 8.096 38.596 7.648C38.596 7.22133 38.468 6.88533 38.212 6.64C37.9667 6.39467 37.5933 6.272 37.092 6.272H35.396V9.056Z" fill="black"/>
<path d="M53.2575 4V6.192H50.2815V15.232H47.5455V6.192H44.5695V4H53.2575Z" fill="black"/>
<path d="M69.4306 4V15.232H66.6946V8.496L64.1826 15.232H61.9746L59.4466 8.48V15.232H56.7106V4H59.9426L63.0946 11.776L66.2146 4H69.4306Z" fill="black"/>
<path d="M80.4701 13.248H76.2781L75.6061 15.232H72.7421L76.8061 4H79.9741L84.0381 15.232H81.1421L80.4701 13.248ZM79.7661 11.136L78.3741 7.024L76.9981 11.136H79.7661Z" fill="black"/>
<path d="M97.403 15.232H94.667L90.091 8.304V15.232H87.355V4H90.091L94.667 10.96V4H97.403V15.232Z" fill="black"/>
<path d="M109.673 6.192V8.464H113.337V10.576H109.673V13.04H113.817V15.232H106.937V4H113.817V6.192H109.673Z" fill="black"/>
<path d="M120.409 13.12H123.993V15.232H117.673V4H120.409V13.12Z" fill="black"/>
<path d="M137.01 4L133.122 11.52V15.232H130.386V11.52L126.498 4H129.602L131.778 8.704L133.938 4H137.01Z" fill="black"/>
<path d="M13.2382 19.346V24.232H12.2582V19.346H13.2382Z" fill="black"/>
<path d="M25.3854 24.232H24.4054L22.1864 20.879V24.232H21.2064V19.339H22.1864L24.4054 22.699V19.339H25.3854V24.232Z" fill="black"/>
<path d="M37.7429 19.346L35.9509 24.232H34.7609L32.9689 19.346H34.0189L35.3629 23.231L36.6999 19.346H37.7429Z" fill="black"/>
<path d="M46.3105 20.137V21.362H47.9555V22.139H46.3105V23.434H48.1655V24.232H45.3305V19.339H48.1655V20.137H46.3105Z" fill="black"/>
<path d="M57.743 24.281C57.4024 24.281 57.0944 24.2227 56.819 24.106C56.5484 23.9893 56.3337 23.8213 56.175 23.602C56.0164 23.3827 55.9347 23.1237 55.93 22.825H56.98C56.994 23.0257 57.064 23.1843 57.19 23.301C57.3207 23.4177 57.498 23.476 57.722 23.476C57.9507 23.476 58.1304 23.4223 58.261 23.315C58.3917 23.203 58.457 23.0583 58.457 22.881C58.457 22.7363 58.4127 22.6173 58.324 22.524C58.2354 22.4307 58.1234 22.3583 57.988 22.307C57.8574 22.251 57.6754 22.1903 57.442 22.125C57.1247 22.0317 56.8657 21.9407 56.665 21.852C56.469 21.7587 56.2987 21.621 56.154 21.439C56.014 21.2523 55.944 21.005 55.944 20.697C55.944 20.4077 56.0164 20.1557 56.161 19.941C56.3057 19.7263 56.5087 19.563 56.77 19.451C57.0314 19.3343 57.33 19.276 57.666 19.276C58.17 19.276 58.5784 19.3997 58.891 19.647C59.2084 19.8897 59.3834 20.2303 59.416 20.669H58.338C58.3287 20.501 58.2564 20.3633 58.121 20.256C57.9904 20.144 57.8154 20.088 57.596 20.088C57.4047 20.088 57.2507 20.137 57.134 20.235C57.022 20.333 56.966 20.4753 56.966 20.662C56.966 20.7927 57.008 20.9023 57.092 20.991C57.1807 21.075 57.288 21.145 57.414 21.201C57.5447 21.2523 57.7267 21.313 57.96 21.383C58.2774 21.4763 58.5364 21.5697 58.737 21.663C58.9377 21.7563 59.1104 21.8963 59.255 22.083C59.3997 22.2697 59.472 22.5147 59.472 22.818C59.472 23.0793 59.4044 23.322 59.269 23.546C59.1337 23.77 58.9354 23.9497 58.674 24.085C58.4127 24.2157 58.1024 24.281 57.743 24.281Z" fill="black"/>
<path d="M70.6467 19.346V20.137H69.3447V24.232H68.3647V20.137H67.0627V19.346H70.6467Z" fill="black"/>
<path d="M83.6887 19.346V24.232H82.7087V21.054L81.3997 24.232H80.6577L79.3417 21.054V24.232H78.3617V19.346H79.4747L81.0287 22.979L82.5827 19.346H83.6887Z" fill="black"/>
<path d="M92.6376 20.137V21.362H94.2826V22.139H92.6376V23.434H94.4926V24.232H91.6576V19.339H94.4926V20.137H92.6376Z" fill="black"/>
<path d="M106.562 24.232H105.582L103.363 20.879V24.232H102.383V19.339H103.363L105.582 22.699V19.339H106.562V24.232Z" fill="black"/>
<path d="M117.856 19.346V20.137H116.554V24.232H115.574V20.137H114.272V19.346H117.856Z" fill="black"/>
<path d="M127.258 24.281C126.917 24.281 126.609 24.2227 126.334 24.106C126.063 23.9893 125.848 23.8213 125.69 23.602C125.531 23.3827 125.449 23.1237 125.445 22.825H126.495C126.509 23.0257 126.579 23.1843 126.705 23.301C126.835 23.4177 127.013 23.476 127.237 23.476C127.465 23.476 127.645 23.4223 127.776 23.315C127.906 23.203 127.972 23.0583 127.972 22.881C127.972 22.7363 127.927 22.6173 127.839 22.524C127.75 22.4307 127.638 22.3583 127.503 22.307C127.372 22.251 127.19 22.1903 126.957 22.125C126.639 22.0317 126.38 21.9407 126.18 21.852C125.984 21.7587 125.813 21.621 125.669 21.439C125.529 21.2523 125.459 21.005 125.459 20.697C125.459 20.4077 125.531 20.1557 125.676 19.941C125.82 19.7263 126.023 19.563 126.285 19.451C126.546 19.3343 126.845 19.276 127.181 19.276C127.685 19.276 128.093 19.3997 128.406 19.647C128.723 19.8897 128.898 20.2303 128.931 20.669H127.853C127.843 20.501 127.771 20.3633 127.636 20.256C127.505 20.144 127.33 20.088 127.111 20.088C126.919 20.088 126.765 20.137 126.649 20.235C126.537 20.333 126.481 20.4753 126.481 20.662C126.481 20.7927 126.523 20.9023 126.607 20.991C126.695 21.075 126.803 21.145 126.929 21.201C127.059 21.2523 127.241 21.313 127.475 21.383C127.792 21.4763 128.051 21.5697 128.252 21.663C128.452 21.7563 128.625 21.8963 128.77 22.083C128.914 22.2697 128.987 22.5147 128.987 22.818C128.987 23.0793 128.919 23.322 128.784 23.546C128.648 23.77 128.45 23.9497 128.189 24.085C127.927 24.2157 127.617 24.281 127.258 24.281Z" fill="black"/>
</svg>
